{"title":"Los.Pinguinos.de.Madagascar.2014.3D.SBS.1080p.Audio.Latino.AlexH","uid":11779344,"size":1987842209,"categoryP":"video","categoryS":"3d","magnet":"?xt=urn:btih:ae7850f5bdfd6c183975a192aebc470c2628a25b&amp;dn=Los.Pinguinos.de.Madagascar.2014.3D.SBS.1080p.Audio.Latino.AlexH&amp;tr=udp%3A%2F%2Ftracker.openbittorrent.com%3A80&amp;tr=udp%3A%2F%2Fopen.demonii.com%3A1337&amp;tr=udp%3A%2F%2Ftracker.coppersurfer.tk%3A6969&amp;tr=udp%3A%2F%2Fexodus.desync.com%3A6969","seeders":15,"leechers":1,"uploader":"AlexHD","files":1,"time":1427493880,"description":"General\nComplete name\t:Los.Pinguinos.de.Madagascar.2014.3D.SBS.1080p.Audio.Latino.AlexHD\nFormat\t\t\t\t: MPEG-4\nFormat profile\t\t\t: Base Media / Version 2\nCodec ID\t\t\t: mp42\nFile size\t\t\t: 1.85 GiB\nDuration\t\t\t: 1h 20mn\nOverall bit rate\t\t: 3 279 Kbps\n\nVideo\nID\t\t\t\t: 1\nFormat\t\t\t \t: AVC\nFormat/Info\t\t\t: Advanced Video Codec\nFormat profile\t\t\t: &lt;a class=&quot;__cf_email__&quot; href=&quot;/cdn-cgi/l/email-protection&quot; data-cfemail=&quot;95d7f4e6f0f9fcfbf0d5d9a1bba5&quot;&gt;[email&amp;#160;protected]&lt;/a&gt;&lt;script cf-hash='f9e31' type=&quot;text/javascript&quot;&gt;\n/* &lt;![CDATA[ */!function(){try{var t=&quot;currentScript&quot;in document?document.currentScript:function(){for(var t=document.getElementsByTagName(&quot;script&quot;),e=t.length;e--;)if(t[e].getAttribute(&quot;cf-hash&quot;))return t[e]}();if(t&amp;&amp;t.previousSibling){var e,r,n,i,c=t.previousSibling,a=c.getAttribute(&quot;data-cfemail&quot;);if(a){for(e=&quot;&quot;,r=parseInt(a.substr(0,2),16),n=2;a.length-n;n+=2)i=parseInt(a.substr(n,2),16)^r,e+=String.fromCharCode(i);e=document.createTextNode(e),c.parentNode.replaceChild(e,c)}}}catch(u){}}();/* ]]&gt; */&lt;/script&gt;\nFormat settings, CABAC\t\t: No\nFormat settings, ReFrames       : 3 frames\nCodec ID                        : avc1\nCodec ID/Info                   : Advanced Video Coding\nDuration                        : 1h 20mn\nBit rate mode                   : Variable\nBit rate                        : 3 223 Kbps\nWidth                           : 1 920 pixels\nHeight                          : 1 080 pixels\nDisplay aspect ratio            : 16:9\nFrame rate mode                 : Variable\nFrame rate                     \t: 24.000 fps\nMinimum frame rate              : 24.000 fps\nMaximum frame rate              : 24.024 fps\nColor space                     : YUV\nChroma subsampling              : 4:2:0\nBit depth                       : 8 bits\nScan type                       : Progressive\nBits/(Pixel*Frame)              : 0.065\nStream size                     : 1.82 GiB (98%)\n\nAudio\nID                              : 2\nFormat                         \t: AAC\nFormat/Info                     : Advanced Audio Codec\nFormat profile                \t: LC\nCodec ID                     \t: 40\nDuration                        : 1h 20mn\nBit rate mode                   : Variable\nBit rate                        : 53.7 Kbps\nMaximum bit rate                : 104 Kbps\nChannel(s)                      : 2 channels\nChannel positions               : Front: L R\nSampling rate                   : 44.1 KHz\nCompression mode                : Lossy\nStream size                     : 31.0 MiB (2%)\nLanguage                        : Spanish","torrent":{"xt":"urn:btih:ae7850f5bdfd6c183975a192aebc470c2628a25b","amp;dn":"Los.Pinguinos.de.Madagascar.2014.3D.SBS.1080p.Audio.Latino.AlexH","amp;tr":["udp%3A%2F%2Ftracker.openbittorrent.com%3A80","udp%3A%2F%2Fopen.demonii.com%3A1337","udp%3A%2F%2Ftracker.coppersurfer.tk%3A6969","udp%3A%2F%2Fexodus.desync.com%3A6969"],"infoHash":"ae7850f5bdfd6c183975a192aebc470c2628a25b","infoHashBuffer":{"type":"Buffer","data":[174,120,80,245,189,253,108,24,57,117,161,146,174,188,71,12,38,40,162,91]},"announce":[],"urlList":[]}}